<svg width="96" height="96" viewBox="0 0 96 96" fill="none" xmlns="http://www.w3.org/2000/svg">
  <defs>
    <linearGradient id="ktt-bg" x1="12" y1="8" x2="84" y2="88" gradientUnits="userSpaceOnUse">
      <stop stop-color="#1D4ED8"/>
      <stop offset="1" stop-color="#0EA5E9"/>
    </linearGradient>
  </defs>
  <rect x="6" y="6" width="84" height="84" rx="26" fill="url(#ktt-bg)"/>
  <rect x="14" y="18" width="68" height="60" rx="20" fill="rgba(15,23,42,0.9)"/>
  <path d="M26 60L34 34H40L32 60H26Z" fill="#E5F2FF"/>
  <path d="M45 34H51C55.5 34 58 36.3 58 40.2C58 44.1 55.5 46.5 51 46.5H49.5V54H45V34ZM51 42.9C53.3 42.9 54.5 41.9 54.5 40.2C54.5 38.6 53.3 37.6 51 37.6H49.5V42.9H51Z" fill="#E5F2FF"/>
  <path d="M63 34H68.2L72 44.3L75.8 34H81V60H77V46.4L73.6 56H70.3L67 46.4V60H63V34Z" fill="#E5F2FF"/>
</svg>
