<svg width="512" height="512" viewBox="0 0 512 512" fill="none" xmlns="http://www.w3.org/2000/svg">
  <defs>
    <linearGradient id="bg" x1="84" y1="60" x2="438" y2="458" gradientUnits="userSpaceOnUse">
      <stop stop-color="#7C3AED" stop-opacity="0.95"/>
      <stop offset="1" stop-color="#22C55E" stop-opacity="0.75"/>
    </linearGradient>
    <radialGradient id="glow" cx="0" cy="0" r="1" gradientUnits="userSpaceOnUse" gradientTransform="translate(170 150) rotate(55) scale(310 260)">
      <stop stop-color="white" stop-opacity="0.26"/>
      <stop offset="1" stop-color="white" stop-opacity="0"/>
    </radialGradient>
  </defs>

  <rect width="512" height="512" rx="92" fill="url(#bg)"/>
  <rect width="512" height="512" rx="92" fill="url(#glow)"/>

  <g opacity="0.92">
    <path d="M256 270c52.47 0 95-42.53 95-95s-42.53-95-95-95-95 42.53-95 95 42.53 95 95 95Z" fill="rgba(255,255,255,0.92)"/>
    <path d="M115 432c0-78.98 63.99-143 143-143h-4c78.98 0 143 64.02 143 143v10H115v-10Z" fill="rgba(255,255,255,0.92)"/>
  </g>

  <path d="M86 428c28-92 94-138 170-138s142 46 170 138" stroke="rgba(255,255,255,0.24)" stroke-width="10" stroke-linecap="round"/>
</svg>
